<svg width="124" height="46" viewBox="0 0 124 46" fill="none" xmlns="http://www.w3.org/2000/svg">
<g clip-path="url(#clip0_324_4631)">
<path d="M58.5911 3.43652C60.1197 3.43652 61.3911 3.92009 62.405 4.88722C63.4189 5.85434 63.9259 7.06324 63.9259 8.51394C63.9259 9.98026 63.4189 11.1891 62.405 12.1406C61.3911 13.0766 60.1197 13.5446 58.5911 13.5446H53.4669V19.1133H51.1973V3.43652H58.5911ZM53.4669 11.3686H58.5209C59.4412 11.3686 60.19 11.1033 60.7672 10.573C61.3443 10.0426 61.6329 9.35627 61.6329 8.51394C61.6329 7.6872 61.3365 7.00865 60.7437 6.47829C60.1666 5.93234 59.4257 5.65936 58.5209 5.65936H53.4669V11.3686ZM66.8951 19.0899V3.43652H73.1892C75.4354 3.43652 77.2917 4.17747 78.7579 5.65936C80.2242 7.12564 80.9574 8.9819 80.9574 11.2281V11.2983C80.9574 13.5446 80.2242 15.4086 78.7579 16.8905C77.2917 18.3568 75.4354 19.0899 73.1892 19.0899H66.8951ZM73.1658 5.65936H69.1648V16.8671H73.1658C74.7725 16.8671 76.0906 16.3524 77.1201 15.3228C78.1497 14.2777 78.6644 12.9362 78.6644 11.2983V11.2281C78.6644 9.59025 78.1497 8.25655 77.1201 7.22703C76.0906 6.18191 74.7725 5.65936 73.1658 5.65936ZM91.5406 3.43652C93.0692 3.43652 94.3402 3.92009 95.3548 4.88722C96.3684 5.85434 96.8753 7.06324 96.8753 8.51394C96.8753 9.98026 96.3684 11.1891 95.3548 12.1406C94.3402 13.0766 93.0692 13.5446 91.5406 13.5446H86.4163V19.1133H84.1467V3.43652H91.5406ZM86.4163 11.3686H91.4703C92.3906 11.3686 93.1394 11.1033 93.7169 10.573C94.2936 10.0426 94.5824 9.35627 94.5824 8.51394C94.5824 7.6872 94.2861 7.00865 93.6936 6.47829C93.116 5.93234 92.3751 5.65936 91.4703 5.65936H86.4163V11.3686Z" fill="#012127"/>
<path d="M64.7881 37.878C63.2046 39.5103 61.1233 40.3266 58.5441 40.3266C55.9649 40.3266 53.8753 39.5103 52.2755 37.878C50.692 36.2292 49.9004 34.205 49.9004 31.8053C49.9004 29.4057 50.7002 27.3732 52.3 25.7081C53.8998 24.0431 55.9812 23.2106 58.5441 23.2106C61.107 23.2106 63.1883 24.0431 64.7881 25.7081C66.3879 27.3732 67.1878 29.4057 67.1878 31.8053C67.1878 34.205 66.3879 36.2292 64.7881 37.878ZM54.8466 35.4293C55.7771 36.4251 57.0096 36.923 58.5441 36.923C60.0786 36.923 61.311 36.4251 62.2416 35.4293C63.172 34.4335 63.6372 33.2173 63.6372 31.7808C63.6372 30.3442 63.172 29.1281 62.2416 28.1323C61.311 27.1366 60.0786 26.6387 58.5441 26.6387C57.0096 26.6387 55.7771 27.1366 54.8466 28.1323C53.9161 29.1281 53.4509 30.3442 53.4509 31.7808C53.4509 33.201 53.9161 34.4171 54.8466 35.4293ZM76.213 27.4467C77.7149 27.4467 78.8984 27.9283 79.7635 28.8914C80.6287 29.8545 81.0613 31.2013 81.0613 32.9317V39.9837H77.7557V33.4214C77.7557 32.5725 77.5189 31.9032 77.0455 31.4135C76.5722 30.9237 75.9763 30.6789 75.258 30.6789C74.4908 30.6789 73.8378 30.9564 73.2991 31.5114C72.7604 32.0501 72.491 32.7685 72.491 33.6662V39.9837H69.1854V27.7895H72.3931V29.2587H72.5155C73.3807 28.0507 74.6132 27.4467 76.213 27.4467ZM83.2425 36.4577V22.3535H86.5482V35.87C86.5482 36.474 86.8746 36.7761 87.5277 36.7761H89.1682V39.9837H86.891C85.7319 39.9837 84.8342 39.6736 84.1975 39.0533C83.5609 38.433 83.2425 37.5678 83.2425 36.4577ZM90.7785 22.3535H94.0839V26.2224H90.7785V22.3535ZM90.7785 27.7895H94.0839V39.9837H90.7785V27.7895ZM103.689 27.4467C105.19 27.4467 106.374 27.9283 107.239 28.8914C108.105 29.8545 108.537 31.2013 108.537 32.9317V39.9837H105.231V33.4214C105.231 32.5725 104.995 31.9032 104.521 31.4135C104.047 30.9237 103.452 30.6789 102.734 30.6789C101.967 30.6789 101.314 30.9564 100.774 31.5114C100.236 32.0501 99.9665 32.7685 99.9665 33.6662V39.9837H96.6609V27.7895H99.8687V29.2587H99.9907C100.856 28.0507 102.089 27.4467 103.689 27.4467ZM116.521 27.4222C118.546 27.4222 120.146 28.1404 121.321 29.577C122.496 31.0135 122.97 32.8174 122.741 34.9885H113.534C113.632 35.6415 113.943 36.1966 114.464 36.6536C115.003 37.0943 115.681 37.3311 116.497 37.3638C117.068 37.3964 117.598 37.2985 118.089 37.0699C118.594 36.825 118.954 36.5067 119.166 36.1149H122.618C122.227 37.4535 121.476 38.4983 120.366 39.2492C119.256 39.9837 117.966 40.3511 116.497 40.3511C114.522 40.3511 112.971 39.7308 111.844 38.4901C110.718 37.2331 110.155 35.6987 110.155 33.8867C110.155 32.0583 110.751 30.5239 111.942 29.2831C113.151 28.0425 114.677 27.4222 116.521 27.4222ZM118.334 30.9237C117.828 30.5647 117.216 30.385 116.497 30.385C115.779 30.385 115.15 30.5728 114.612 30.9482C114.089 31.3074 113.739 31.7971 113.559 32.4175H119.386C119.207 31.7808 118.855 31.2829 118.334 30.9237Z" fill="#F14B4B"/>
<path d="M41.2146 30.0171C42.9974 25.6442 43.2834 20.8044 42.028 16.252C40.7724 11.6996 38.0462 7.69051 34.274 4.84958C30.5018 2.00867 25.8957 0.495566 21.1737 0.54615C16.4517 0.596734 11.879 2.20816 8.16853 5.12924C4.45807 8.05031 1.81828 12.1169 0.660645 16.6951C-0.496991 21.2734 -0.107423 26.106 1.76863 30.4396C3.64467 34.7733 6.90178 38.3645 11.0323 40.6535C15.1627 42.9425 19.9345 43.8007 24.6036 43.0942L23.195 33.7852C20.5806 34.1807 17.9087 33.7003 15.5958 32.4185C13.283 31.1368 11.4593 29.1259 10.4087 26.6993C9.35824 24.2727 9.14012 21.5667 9.78831 19.0031C10.4366 16.4395 11.9147 14.1625 13.9923 12.5269C16.07 10.8912 18.6304 9.98889 21.2745 9.96057C23.9186 9.93225 26.4977 10.7795 28.61 12.3703C30.7222 13.961 32.2488 16.2059 32.9518 18.755C33.6548 21.3041 33.4946 24.0141 32.4963 26.4627L41.2146 30.0171Z" fill="#00B533"/>
<path d="M21.4023 29.16C25.3901 29.16 28.6229 25.9272 28.6229 21.9394C28.6229 17.9515 25.3901 14.7188 21.4023 14.7188C17.4144 14.7188 14.1816 17.9515 14.1816 21.9394C14.1816 25.9272 17.4144 29.16 21.4023 29.16Z" fill="#FFCC19"/>
<path d="M23.8281 25.6348C25.2576 31.304 27.3815 42.8349 27.3815 42.8349C27.3815 42.8349 29.5043 34.9108 31.1507 33.8085C32.7972 32.7061 40.6067 32.2474 40.6067 32.2474L23.8281 25.6348Z" fill="#F14B4B"/>
</g>
<defs>
<clipPath id="clip0_324_4631">
<rect width="123.54" height="45" fill="white" transform="translate(0 0.5)"/>
</clipPath>
</defs>
</svg>
